<svg width="800" height="800" viewBox="0 0 800 800" fill="none" xmlns="http://www.w3.org/2000/svg">
<rect width="800" height="800" fill="white"/>
<g filter="url(#filter0_i)">
<path d="M241.16 500.8C227.16 500.8 214.653 497.347 203.64 490.44C192.813 483.533 184.32 474.387 178.16 463C172 451.427 168.92 438.92 168.92 425.48C168.92 411.853 172 399.347 178.16 387.96C184.507 376.387 193.093 367.147 203.92 360.24C214.933 353.147 227.347 349.6 241.16 349.6C255.16 349.6 267.573 353.147 278.4 360.24C289.413 367.147 298 376.387 304.16 387.96C310.507 399.347 313.68 411.853 313.68 425.48C313.68 438.92 310.6 451.427 304.44 463C298.28 474.387 289.693 483.533 278.68 490.44C267.853 497.347 255.347 500.8 241.16 500.8ZM188.24 425.76C188.24 436.587 190.573 446.48 195.24 455.44C200.093 464.213 206.533 471.213 214.56 476.44C222.587 481.48 231.453 484 241.16 484C250.867 484 259.733 481.387 267.76 476.16C275.787 470.933 282.227 463.84 287.08 454.88C291.933 445.92 294.36 436.027 294.36 425.2C294.36 414.373 291.933 404.48 287.08 395.52C282.227 386.56 275.787 379.467 267.76 374.24C259.733 369.013 250.867 366.4 241.16 366.4C231.64 366.4 222.867 369.107 214.84 374.52C206.813 379.747 200.373 386.84 195.52 395.8C190.667 404.76 188.24 414.747 188.24 425.76ZM346.363 293.6H365.403V464.96C365.403 472.24 366.617 477 369.043 479.24C371.657 481.48 374.923 482.6 378.843 482.6C382.203 482.6 385.563 482.227 388.923 481.48C392.47 480.733 395.363 479.987 397.603 479.24L400.963 494.64C397.417 496.133 393.03 497.347 387.803 498.28C382.763 499.213 378.377 499.68 374.643 499.68C366.057 499.68 359.15 497.16 353.923 492.12C348.883 487.08 346.363 480.173 346.363 471.4V293.6ZM422.653 293.6H441.693V464.96C441.693 472.24 442.906 477 445.333 479.24C447.946 481.48 451.213 482.6 455.133 482.6C458.493 482.6 461.853 482.227 465.213 481.48C468.759 480.733 471.653 479.987 473.893 479.24L477.253 494.64C473.706 496.133 469.319 497.347 464.093 498.28C459.053 499.213 454.666 499.68 450.933 499.68C442.346 499.68 435.439 497.16 430.213 492.12C425.173 487.08 422.653 480.173 422.653 471.4V293.6ZM561.102 500.8C547.102 500.8 534.595 497.347 523.582 490.44C512.568 483.533 503.888 474.293 497.542 462.72C491.195 451.147 488.022 438.453 488.022 424.64C488.022 411.013 491.102 398.507 497.262 387.12C503.608 375.733 512.288 366.68 523.302 359.96C534.315 353.053 546.822 349.6 560.822 349.6C575.195 349.6 587.795 353.053 598.622 359.96C609.448 366.867 617.848 376.013 623.822 387.4C629.982 398.6 633.062 410.92 633.062 424.36C633.062 427.347 632.968 429.867 632.782 431.92H507.902C508.835 442.373 511.822 451.707 516.862 459.92C521.902 467.947 528.342 474.387 536.182 479.24C544.022 483.907 552.608 486.24 561.942 486.24C571.462 486.24 580.422 483.813 588.822 478.96C597.222 474.107 603.195 467.76 606.742 459.92L623.262 464.4C620.275 471.493 615.608 477.84 609.262 483.44C603.102 488.853 595.915 493.147 587.702 496.32C579.488 499.307 570.622 500.8 561.102 500.8ZM507.342 418.2H615.142C614.395 407.747 611.502 398.507 606.462 390.48C601.422 382.267 594.982 375.92 587.142 371.44C579.302 366.773 570.622 364.44 561.102 364.44C551.582 364.44 542.902 366.773 535.062 371.44C527.222 375.92 520.782 382.267 515.742 390.48C510.888 398.507 508.088 407.747 507.342 418.2Z" fill="white"/>
</g>
<defs>
<filter id="filter0_i" x="168.92" y="293.6" width="464.142" height="211.2" filterUnits="userSpaceOnUse" color-interpolation-filters="sRGB">
<feFlood flood-opacity="0" result="BackgroundImageFix"/>
<feBlend mode="normal" in="SourceGraphic" in2="BackgroundImageFix" result="shape"/>
<feColorMatrix in="SourceAlpha" type="matrix" values="0 0 0 0 0 0 0 0 0 0 0 0 0 0 0 0 0 0 127 0" result="hardAlpha"/>
<feOffset dy="4"/>
<feGaussianBlur stdDeviation="7.5"/>
<feComposite in2="hardAlpha" operator="arithmetic" k2="-1" k3="1"/>
<feColorMatrix type="matrix" values="0 0 0 0 0 0 0 0 0 0 0 0 0 0 0 0 0 0 0.2 0"/>
<feBlend mode="normal" in2="shape" result="effect1_innerShadow"/>
</filter>
</defs>
</svg>
